<svg width="100" height="100" viewBox="0 0 100 100" fill="none" xmlns="http://www.w3.org/2000/svg">
<path d="M84.8333 63.7459V90.0538C84.8333 93.5962 81.941 96.5 78.3333 96.5H61.8333V75.6419C61.8333 70.9446 58.0099 67.1688 53.3333 67.1688H46.6667C41.9901 67.1688 38.1667 70.9446 38.1667 75.6419V96.5H21.6667C18.059 96.5 15.1667 93.5962 15.1667 90.0538V63.7459C15.1667 61.6388 13.4544 59.9629 11.3821 59.9629H11.2609C6.95687 59.9629 3.5 56.4975 3.5 52.2625C3.5 50.2911 4.26228 48.3917 5.63443 46.9587L3.10646 44.5381L5.63444 46.9587L45.3254 5.50737C47.8787 2.84085 52.1603 2.82931 54.7281 5.48234L94.232 46.2972C95.6891 47.8028 96.5 49.8074 96.5 51.8896V52.142C96.5 56.4436 92.9889 59.9629 88.6179 59.9629C86.5456 59.9629 84.8333 61.6388 84.8333 63.7459Z" stroke="#9A9A9A" stroke-width="7"/>
</svg>
