<svg width="100" height="91" viewBox="0 0 100 91" fill="none" xmlns="http://www.w3.org/2000/svg">
<rect x="0.000976562" y="73" width="60" height="7" rx="3.5" fill="url(#paint0_linear_797_1443)"/>
<rect x="0.000976562" y="12" width="60" height="7" rx="3.5" fill="url(#paint1_linear_797_1443)"/>
<rect width="60" height="7" rx="3.5" transform="matrix(-1 0 0 1 100.001 42)" fill="url(#paint2_linear_797_1443)"/>
<rect x="74" y="73" width="25.2632" height="7" rx="3.5" fill="url(#paint3_linear_797_1443)"/>
<rect x="74" y="12" width="25.2632" height="7" rx="3.5" fill="url(#paint4_linear_797_1443)"/>
<rect width="25" height="7" rx="3.5" transform="matrix(-1 0 0 1 25 42)" fill="url(#paint5_linear_797_1443)"/>
<rect x="54" y="61" width="7" height="30" rx="3.5" fill="url(#paint6_linear_797_1443)"/>
<rect x="54" width="7" height="30" rx="3.5" fill="url(#paint7_linear_797_1443)"/>
<rect width="7" height="30" rx="3.5" transform="matrix(-1 0 0 1 45 30)" fill="url(#paint8_linear_797_1443)"/>
<defs>
<linearGradient id="paint0_linear_797_1443" x1="30.001" y1="73" x2="30.001" y2="80" gradientUnits="userSpaceOnUse">
<stop stop-color="#56B8F6"/>
<stop offset="1" stop-color="#4D6FED"/>
</linearGradient>
<linearGradient id="paint1_linear_797_1443" x1="30.001" y1="12" x2="30.001" y2="19" gradientUnits="userSpaceOnUse">
<stop stop-color="#56B8F6"/>
<stop offset="1" stop-color="#4D6FED"/>
</linearGradient>
<linearGradient id="paint2_linear_797_1443" x1="30" y1="0" x2="30" y2="7" gradientUnits="userSpaceOnUse">
<stop stop-color="#56B8F6"/>
<stop offset="1" stop-color="#4D6FED"/>
</linearGradient>
<linearGradient id="paint3_linear_797_1443" x1="86.6316" y1="73" x2="86.6316" y2="80" gradientUnits="userSpaceOnUse">
<stop stop-color="#56B8F6"/>
<stop offset="1" stop-color="#4D6FED"/>
</linearGradient>
<linearGradient id="paint4_linear_797_1443" x1="86.6316" y1="12" x2="86.6316" y2="19" gradientUnits="userSpaceOnUse">
<stop stop-color="#56B8F6"/>
<stop offset="1" stop-color="#4D6FED"/>
</linearGradient>
<linearGradient id="paint5_linear_797_1443" x1="12.5" y1="0" x2="12.5" y2="7" gradientUnits="userSpaceOnUse">
<stop stop-color="#56B8F6"/>
<stop offset="1" stop-color="#4D6FED"/>
</linearGradient>
<linearGradient id="paint6_linear_797_1443" x1="57.5" y1="61" x2="57.5" y2="91" gradientUnits="userSpaceOnUse">
<stop stop-color="#56B8F6"/>
<stop offset="1" stop-color="#4D6FED"/>
</linearGradient>
<linearGradient id="paint7_linear_797_1443" x1="57.5" y1="0" x2="57.5" y2="30" gradientUnits="userSpaceOnUse">
<stop stop-color="#56B8F6"/>
<stop offset="1" stop-color="#4D6FED"/>
</linearGradient>
<linearGradient id="paint8_linear_797_1443" x1="3.5" y1="0" x2="3.5" y2="30" gradientUnits="userSpaceOnUse">
<stop stop-color="#56B8F6"/>
<stop offset="1" stop-color="#4D6FED"/>
</linearGradient>
</defs>
</svg>
