<svg width="25" height="25" viewBox="0 0 25 25" fill="none" xmlns="http://www.w3.org/2000/svg">
<circle cx="10.8462" cy="9.84615" r="9.09615" stroke="#9A9A9A" stroke-width="1.5"/>
<path d="M17.3047 17.2305L23.7102 23.9997" stroke="#9A9A9A" stroke-width="1.5" stroke-linecap="round"/>
<path d="M11 9.29662C12.0023 9.29662 12.8148 8.4841 12.8148 7.48181C12.8148 6.47951 12.0023 5.66699 11 5.66699C9.9977 5.66699 9.18518 6.47951 9.18518 7.48181C9.18518 8.4841 9.9977 9.29662 11 9.29662Z" stroke="#9A9A9A" stroke-width="1.5" stroke-linecap="round" stroke-linejoin="round"/>
<path d="M6.33362 17.3331V17.022C6.33362 15.8604 6.33362 12.9463 6.55968 12.5026C6.75853 12.1123 7.07582 11.795 7.46609 11.5962C7.90976 11.3701 8.49055 11.3701 9.65214 11.3701H12.3484C13.51 11.3701 14.0908 11.3701 14.5345 11.5962C14.9247 11.795 15.2421 12.1123 15.4409 12.5026C15.667 12.9463 15.667 15.8604 15.667 17.022V17.3331" stroke="#9A9A9A" stroke-width="1.5" stroke-linecap="round" stroke-linejoin="round"/>
</svg>
