<svg width="20" height="21" viewBox="0 0 20 21" fill="none" xmlns="http://www.w3.org/2000/svg">
<rect x="0.75" y="1.74988" width="9.5" height="9.5" rx="2.25" stroke="url(#paint0_linear_7_551)" stroke-width="1.5"/>
<path d="M2 13.9999V13.9999C2 16.7613 4.23858 18.9999 7 18.9999V18.9999" stroke="url(#paint1_linear_7_551)" stroke-width="1.5" stroke-linecap="round"/>
<path d="M13 2.99988V2.99988C15.7614 2.99988 18 5.23845 18 7.99988V7.99988" stroke="url(#paint2_linear_7_551)" stroke-width="1.5" stroke-linecap="round"/>
<rect x="9.75" y="10.7499" width="9.5" height="9.5" rx="2.25" stroke="url(#paint3_linear_7_551)" stroke-width="1.5"/>
<path d="M6.96582 9.37634L5.53091 9.81341L5.85468 10.8763H6.96582V9.37634ZM6.55176 8.01697L7.98667 7.5799L7.6629 6.51697H6.55176V8.01697ZM4.46973 8.01697V6.51697H3.35858L3.03482 7.5799L4.46973 8.01697ZM4.05566 9.37634V10.8763H5.16681L5.49058 9.81341L4.05566 9.37634ZM2.75098 9.37634L1.33585 8.87893L0.633763 10.8763H2.75098V9.37634ZM4.7666 3.64197V2.14197H3.70388L3.35148 3.14455L4.7666 3.64197ZM6.24707 3.64197L7.66159 3.14284L7.30842 2.14197H6.24707V3.64197ZM8.27051 9.37634V10.8763H10.3904L9.68503 8.87721L8.27051 9.37634ZM6.2627 7.00134V8.50134H8.30155L7.69471 6.55489L6.2627 7.00134ZM5.84863 5.67322L4.40958 6.09647L4.41301 6.1081L4.41661 6.11967L5.84863 5.67322ZM5.74316 5.33337L4.30497 5.75951L4.30973 5.77557L4.31484 5.79152L5.74316 5.33337ZM5.61426 4.90759L4.17197 5.31967L4.1764 5.33516L4.18115 5.35055L5.61426 4.90759ZM5.5127 4.52869L6.96998 4.17325H4.05541L5.5127 4.52869ZM5.40332 4.92712L3.96465 4.5026L3.96235 4.5104L3.96013 4.51822L5.40332 4.92712ZM5.18457 5.67322L6.61779 6.11583L6.61958 6.10996L5.18457 5.67322ZM4.77441 7.00134L3.3412 6.55873L2.74128 8.50134H4.77441V7.00134ZM8.40073 8.93927L7.98667 7.5799L5.11685 8.45404L5.53091 9.81341L8.40073 8.93927ZM6.55176 6.51697H4.46973V9.51697H6.55176V6.51697ZM3.03482 7.5799L2.62075 8.93927L5.49058 9.81341L5.90464 8.45404L3.03482 7.5799ZM4.05566 7.87634H2.75098V10.8763H4.05566V7.87634ZM4.1661 9.87376L6.18173 4.13938L3.35148 3.14455L1.33585 8.87893L4.1661 9.87376ZM4.7666 5.14197H6.24707V2.14197H4.7666V5.14197ZM4.83255 4.1411L6.85599 9.87547L9.68503 8.87721L7.66159 3.14284L4.83255 4.1411ZM8.27051 7.87634H6.96582V10.8763H8.27051V7.87634ZM7.69471 6.55489L7.28065 5.22676L4.41661 6.11967L4.83068 7.4478L7.69471 6.55489ZM7.28768 5.24997C7.25685 5.14515 7.21764 5.01913 7.17149 4.87523L4.31484 5.79152C4.35723 5.92366 4.38833 6.02421 4.40958 6.09647L7.28768 5.24997ZM7.18136 4.90724C7.13799 4.76088 7.09333 4.61334 7.04736 4.46463L4.18115 5.35055C4.22373 5.48831 4.265 5.62462 4.30497 5.75951L7.18136 4.90724ZM7.05654 4.49551C7.01839 4.36198 6.99003 4.25547 6.96998 4.17325L4.05541 4.88412C4.08745 5.01545 4.12679 5.16154 4.17197 5.31967L7.05654 4.49551ZM4.05541 4.17325C4.03708 4.24842 4.00778 4.35643 3.96465 4.5026L6.84199 5.35165C6.89261 5.18011 6.93623 5.0225 6.96998 4.88412L4.05541 4.17325ZM3.96013 4.51822C3.91732 4.66932 3.87602 4.81198 3.83622 4.9463L6.71261 5.79857C6.75615 5.65164 6.80078 5.49743 6.84651 5.33603L3.96013 4.51822ZM3.83622 4.9463C3.79459 5.0868 3.76602 5.18238 3.74956 5.23648L6.61958 6.10996C6.63958 6.04426 6.67091 5.93932 6.71261 5.79857L3.83622 4.9463ZM3.75136 5.23061L3.3412 6.55873L6.20763 7.44395L6.61778 6.11583L3.75136 5.23061ZM4.77441 8.50134H6.2627V5.50134H4.77441V8.50134Z" fill="url(#paint4_linear_7_551)"/>
<defs>
<linearGradient id="paint0_linear_7_551" x1="5.5" y1="0.999878" x2="5.5" y2="11.9999" gradientUnits="userSpaceOnUse">
<stop stop-color="#56B6F6"/>
<stop offset="1" stop-color="#4D6FED"/>
</linearGradient>
<linearGradient id="paint1_linear_7_551" x1="4.5" y1="13.9999" x2="4.5" y2="18.9999" gradientUnits="userSpaceOnUse">
<stop stop-color="#56B8F6"/>
<stop offset="1" stop-color="#4D6FED"/>
</linearGradient>
<linearGradient id="paint2_linear_7_551" x1="13" y1="5.49988" x2="18" y2="5.49988" gradientUnits="userSpaceOnUse">
<stop stop-color="#56B8F6"/>
<stop offset="1" stop-color="#4D6FED"/>
</linearGradient>
<linearGradient id="paint3_linear_7_551" x1="14.5" y1="9.99988" x2="14.5" y2="20.9999" gradientUnits="userSpaceOnUse">
<stop stop-color="#56B6F6"/>
<stop offset="1" stop-color="#4D6FED"/>
</linearGradient>
<linearGradient id="paint4_linear_7_551" x1="5.75098" y1="0.376343" x2="5.75098" y2="11.3763" gradientUnits="userSpaceOnUse">
<stop stop-color="#56B8F6"/>
<stop offset="1" stop-color="#4D6FED"/>
</linearGradient>
</defs>
</svg>
