<svg width="34" height="44" viewBox="0 0 34 44" fill="none" xmlns="http://www.w3.org/2000/svg">
<path d="M0.503906 5.99988C0.503906 2.68617 3.1902 -0.00012207 6.50391 -0.00012207H21L33.5009 12.9999V37.9999C33.5009 41.3136 30.8146 43.9999 27.5009 43.9999H6.5039C3.1902 43.9999 0.503906 41.3136 0.503906 37.9999V5.99988Z" fill="#FF464B"/>
<path d="M21 12.9999V-0.00012207L33.5 12.9999H21Z" fill="#FF8689"/>
<path d="M10.2422 26.8612C11.1471 26.8612 11.8242 27.0581 12.2734 27.452C12.7259 27.8459 12.9521 28.4058 12.9521 29.1317C12.9521 29.4572 12.9049 29.7697 12.8105 30.0692C12.7194 30.3687 12.568 30.6356 12.3564 30.87C12.1481 31.1044 11.8698 31.2899 11.5215 31.4266C11.1764 31.5634 10.75 31.6317 10.2422 31.6317H9.7002V33.9999H7.77148V26.8612H10.2422ZM10.1982 28.4188H9.7002V30.0594H10.0811C10.2471 30.0594 10.4017 30.0318 10.5449 29.9764C10.6882 29.9178 10.8021 29.8251 10.8867 29.6981C10.9746 29.5679 11.0186 29.3954 11.0186 29.1805C11.0186 28.9559 10.9518 28.7736 10.8184 28.6337C10.6849 28.4904 10.4782 28.4188 10.1982 28.4188ZM19.9494 30.2792C19.9494 31.1093 19.7948 31.7994 19.4855 32.3495C19.1763 32.8996 18.7401 33.313 18.177 33.5897C17.6171 33.8632 16.9579 33.9999 16.1994 33.9999H13.8898V26.8612H16.3605C17.1288 26.8612 17.7798 26.993 18.3137 27.2567C18.8475 27.5204 19.2528 27.9061 19.5295 28.4139C19.8094 28.9218 19.9494 29.5435 19.9494 30.2792ZM17.9475 30.3475C17.9475 29.9146 17.8889 29.5565 17.7717 29.2733C17.6577 28.9869 17.4852 28.7736 17.2541 28.6337C17.023 28.4904 16.7316 28.4188 16.3801 28.4188H15.8186V32.4178H16.2482C16.8342 32.4178 17.2639 32.2486 17.5373 31.91C17.8107 31.5682 17.9475 31.0474 17.9475 30.3475ZM22.933 33.9999H21.0336V26.8612H25.2523V28.4091H22.933V29.7714H25.0717V31.3192H22.933V33.9999Z" fill="white"/>
</svg>
