<svg width="24" height="24" viewBox="0 0 24 24" fill="none" xmlns="http://www.w3.org/2000/svg">
<mask id="path-1-inside-1_125_1709" fill="white">
<path fill-rule="evenodd" clip-rule="evenodd" d="M21.8587 10.1315C22.4178 9.73276 22.4178 8.9021 21.8587 8.50332L13.0807 2.24181C12.4188 1.76964 11.5 2.24283 11.5 3.05591V6.01224C6.20944 6.27275 2 10.6448 2 16V22L3.69742 17.9155C5.02724 14.7156 8.06926 12.579 11.5 12.3888V15.5789C11.5 16.392 12.4188 16.8652 13.0807 16.393L21.8587 10.1315Z"/>
</mask>
<path d="M21.8587 8.50332L20.9876 9.72448L20.9876 9.72448L21.8587 8.50332ZM21.8587 10.1315L20.9876 8.91037L20.9876 8.91037L21.8587 10.1315ZM13.0807 2.24181L13.9518 1.02065V1.02065L13.0807 2.24181ZM11.5 6.01224L11.5738 7.51042L13 7.44019V6.01224H11.5ZM2 22H0.5L3.38515 22.5756L2 22ZM3.69742 17.9155L2.31227 17.3399H2.31227L3.69742 17.9155ZM11.5 12.3888H13V10.8033L11.417 10.8911L11.5 12.3888ZM13.0807 16.393L12.2096 15.1719L13.0807 16.393ZM20.9876 9.72448C20.7081 9.52509 20.7081 9.10976 20.9876 8.91037L22.7298 11.3527C24.1274 10.3558 24.1274 8.27911 22.7298 7.28216L20.9876 9.72448ZM12.2096 3.46297L20.9876 9.72448L22.7298 7.28216L13.9518 1.02065L12.2096 3.46297ZM13 3.05591C13 3.46246 12.5406 3.69905 12.2096 3.46297L13.9518 1.02065C12.297 -0.159771 10 1.02321 10 3.05591H13ZM13 6.01224V3.05591H10V6.01224H13ZM3.5 16C3.5 11.4485 7.07803 7.7318 11.5738 7.51042L11.4262 4.51405C5.34086 4.8137 0.5 9.84105 0.5 16H3.5ZM3.5 22V16H0.5V22H3.5ZM2.31227 17.3399L0.614853 21.4243L3.38515 22.5756L5.08256 18.4912L2.31227 17.3399ZM11.417 10.8911C7.41347 11.1131 3.86401 13.606 2.31227 17.3399L5.08256 18.4912C6.19048 15.8253 8.72505 14.0449 11.583 13.8865L11.417 10.8911ZM13 15.5789V12.3888H10V15.5789H13ZM12.2096 15.1719C12.5406 14.9358 13 15.1724 13 15.5789H10C10 17.6116 12.297 18.7946 13.9518 17.6142L12.2096 15.1719ZM20.9876 8.91037L12.2096 15.1719L13.9518 17.6142L22.7298 11.3527L20.9876 8.91037Z" fill="#CFCFCF" mask="url(#path-1-inside-1_125_1709)"/>
</svg>
